<svg xmlns="http://www.w3.org/2000/svg" viewBox="0 0 130 130">
<style>rect{fill:#0a0a0a}@media(prefers-color-scheme:dark){rect{fill:#fafafa}}</style>
<rect x="60" y="0" width="10" height="10"/>
<rect x="50" y="10" width="10" height="10"/>
<rect x="70" y="10" width="10" height="10"/>
<rect x="40" y="20" width="10" height="10"/>
<rect x="50" y="20" width="10" height="10"/>
<rect x="60" y="20" width="10" height="10"/>
<rect x="70" y="20" width="10" height="10"/>
<rect x="80" y="20" width="10" height="10"/>
<rect x="30" y="30" width="10" height="10"/>
<rect x="40" y="30" width="10" height="10"/>
<rect x="50" y="30" width="10" height="10"/>
<rect x="70" y="30" width="10" height="10"/>
<rect x="80" y="30" width="10" height="10"/>
<rect x="90" y="30" width="10" height="10"/>
<rect x="20" y="40" width="10" height="10"/>
<rect x="30" y="40" width="10" height="10"/>
<rect x="40" y="40" width="10" height="10"/>
<rect x="50" y="40" width="10" height="10"/>
<rect x="70" y="40" width="10" height="10"/>
<rect x="80" y="40" width="10" height="10"/>
<rect x="90" y="40" width="10" height="10"/>
<rect x="100" y="40" width="10" height="10"/>
<rect x="10" y="50" width="10" height="10"/>
<rect x="20" y="50" width="10" height="10"/>
<rect x="30" y="50" width="10" height="10"/>
<rect x="40" y="50" width="10" height="10"/>
<rect x="80" y="50" width="10" height="10"/>
<rect x="90" y="50" width="10" height="10"/>
<rect x="100" y="50" width="10" height="10"/>
<rect x="110" y="50" width="10" height="10"/>
<rect x="0" y="60" width="10" height="10"/>
<rect x="20" y="60" width="10" height="10"/>
<rect x="100" y="60" width="10" height="10"/>
<rect x="120" y="60" width="10" height="10"/>
<rect x="10" y="70" width="10" height="10"/>
<rect x="20" y="70" width="10" height="10"/>
<rect x="30" y="70" width="10" height="10"/>
<rect x="40" y="70" width="10" height="10"/>
<rect x="80" y="70" width="10" height="10"/>
<rect x="90" y="70" width="10" height="10"/>
<rect x="100" y="70" width="10" height="10"/>
<rect x="110" y="70" width="10" height="10"/>
<rect x="20" y="80" width="10" height="10"/>
<rect x="30" y="80" width="10" height="10"/>
<rect x="40" y="80" width="10" height="10"/>
<rect x="50" y="80" width="10" height="10"/>
<rect x="70" y="80" width="10" height="10"/>
<rect x="80" y="80" width="10" height="10"/>
<rect x="90" y="80" width="10" height="10"/>
<rect x="100" y="80" width="10" height="10"/>
<rect x="30" y="90" width="10" height="10"/>
<rect x="40" y="90" width="10" height="10"/>
<rect x="50" y="90" width="10" height="10"/>
<rect x="70" y="90" width="10" height="10"/>
<rect x="80" y="90" width="10" height="10"/>
<rect x="90" y="90" width="10" height="10"/>
<rect x="40" y="100" width="10" height="10"/>
<rect x="50" y="100" width="10" height="10"/>
<rect x="60" y="100" width="10" height="10"/>
<rect x="70" y="100" width="10" height="10"/>
<rect x="80" y="100" width="10" height="10"/>
<rect x="50" y="110" width="10" height="10"/>
<rect x="70" y="110" width="10" height="10"/>
<rect x="60" y="120" width="10" height="10"/>
</svg>
